<svg width="400" height="400" viewBox="0 0 400 400" fill="none" xmlns="http://www.w3.org/2000/svg">
  <rect width="400" height="400" fill="#F3F4F6"/>
  
  <!-- Hoodie Shape -->
  <path d="M80 120L80 100C80 80 100 60 120 60L280 60C300 60 320 80 320 100L320 120L340 140L340 200L320 220L320 340C320 360 300 380 280 380L120 380C100 380 80 360 80 340L80 220L60 200L60 140L80 120Z" fill="#E5E7EB"/>
  
  <!-- Hood -->
  <path d="M100 60C100 40 120 20 140 20L260 20C280 20 300 40 300 60L300 100L100 100L100 60Z" fill="#D1D5DB"/>
  
  <!-- Pocket -->
  <rect x="160" y="200" width="80" height="60" rx="10" fill="#D1D5DB"/>
  
  <!-- Sleeves -->
  <ellipse cx="50" cy="180" rx="30" ry="80" fill="#E5E7EB"/>
  <ellipse cx="350" cy="180" rx="30" ry="80" fill="#E5E7EB"/>
  
  <!-- Text -->
  <text x="200" y="320" text-anchor="middle" fill="#9CA3AF" font-family="Arial, sans-serif" font-size="16" font-weight="500">Hoodie</text>
  <text x="200" y="340" text-anchor="middle" fill="#9CA3AF" font-family="Arial, sans-serif" font-size="12">Placeholder</text>
</svg>